<svg id="Capa_1" data-name="Capa 1" xmlns="http://www.w3.org/2000/svg" xmlns:xlink="http://www.w3.org/1999/xlink" viewBox="0 0 44.06 51.55"><defs><style>.cls-1{fill:url(#Degradado_sin_nombre_6);}</style><linearGradient id="Degradado_sin_nombre_6" x1="22.03" y1="51.55" x2="22.03" gradientUnits="userSpaceOnUse"><stop offset="0" stop-color="#ff8818"/><stop offset="1" stop-color="#ffcf18"/></linearGradient></defs><title>LogoContraidoDegradado</title><path class="cls-1" d="M42.59,1.55a5.55,5.55,0,0,1,1.47,4v40.4A5.64,5.64,0,0,1,42.59,50a5.06,5.06,0,0,1-3.85,1.55,5.21,5.21,0,0,1-4.18-1.87L10.44,18.79V45.94A5.82,5.82,0,0,1,9,50a4.84,4.84,0,0,1-3.78,1.55A4.94,4.94,0,0,1,1.44,50,5.71,5.71,0,0,1,0,45.94V5.54a5.52,5.52,0,0,1,1.48-4A5.07,5.07,0,0,1,5.33,0a4.86,4.86,0,0,1,4.1,1.87L33.55,32.54v-27a5.62,5.62,0,0,1,1.44-4A4.89,4.89,0,0,1,38.74,0,5.1,5.1,0,0,1,42.59,1.55Z"/></svg>