<svg id="Capa_1" data-name="Capa 1" xmlns="http://www.w3.org/2000/svg" xmlns:xlink="http://www.w3.org/1999/xlink" viewBox="0 0 230.76 51.55"><defs><style>.cls-1{fill:url(#Degradado_sin_nombre_12);}.cls-2{fill:url(#Degradado_sin_nombre_12-2);}.cls-3{fill:url(#Degradado_sin_nombre_12-3);}.cls-4{fill:url(#Degradado_sin_nombre_12-4);}.cls-5{fill:url(#Degradado_sin_nombre_12-5);}.cls-6{fill:url(#Degradado_sin_nombre_12-6);}</style><linearGradient id="Degradado_sin_nombre_12" x1="22.03" y1="51.55" x2="22.03" gradientUnits="userSpaceOnUse"><stop offset="0" stop-color="#ff8818"/><stop offset="0.22" stop-color="#ff9118"/><stop offset="0.58" stop-color="#ffab18"/><stop offset="0.99" stop-color="#ffcf18"/></linearGradient><linearGradient id="Degradado_sin_nombre_12-2" x1="74.34" y1="51.12" x2="74.34" y2="0.36" xlink:href="#Degradado_sin_nombre_12"/><linearGradient id="Degradado_sin_nombre_12-3" x1="106.78" y1="51.55" x2="106.78" xlink:href="#Degradado_sin_nombre_12"/><linearGradient id="Degradado_sin_nombre_12-4" x1="142.09" y1="51.12" x2="142.09" xlink:href="#Degradado_sin_nombre_12"/><linearGradient id="Degradado_sin_nombre_12-5" x1="172.94" y1="51.55" x2="172.94" xlink:href="#Degradado_sin_nombre_12"/><linearGradient id="Degradado_sin_nombre_12-6" x1="208.15" y1="51.48" x2="208.15" y2="0.36" xlink:href="#Degradado_sin_nombre_12"/></defs><title>LogoDegradado</title><path class="cls-1" d="M42.59,1.55a5.55,5.55,0,0,1,1.47,4v40.4A5.64,5.64,0,0,1,42.59,50a5.06,5.06,0,0,1-3.85,1.55,5.21,5.21,0,0,1-4.18-1.87L10.44,18.79V45.94A5.82,5.82,0,0,1,9,50a4.84,4.84,0,0,1-3.78,1.55A4.94,4.94,0,0,1,1.44,50,5.71,5.71,0,0,1,0,45.94V5.54a5.52,5.52,0,0,1,1.48-4A5.07,5.07,0,0,1,5.33,0a4.86,4.86,0,0,1,4.1,1.87L33.55,32.54v-27a5.62,5.62,0,0,1,1.44-4A4.89,4.89,0,0,1,38.74,0,5.1,5.1,0,0,1,42.59,1.55Z"/><path class="cls-2" d="M57.67,49.75a5.27,5.27,0,0,1-1.37-3.89V5.62a5.27,5.27,0,0,1,1.37-3.89A5.27,5.27,0,0,1,61.56.36H87.05q5.33,0,5.33,4.32T87.05,9.07H67.25V21H85.61c3.55,0,5.33,1.47,5.33,4.39s-1.78,4.32-5.33,4.32H67.25V42.41h19.8q5.33,0,5.33,4.39t-5.33,4.32H61.56A5.27,5.27,0,0,1,57.67,49.75Z"/><path class="cls-3" d="M102.67,50a5.54,5.54,0,0,1-1.51-4.1V5.54a5.44,5.44,0,0,1,1.51-4,6.33,6.33,0,0,1,8.21,0,5.44,5.44,0,0,1,1.51,4v40.4a5.81,5.81,0,0,1-9.72,4.1Z"/><path class="cls-4" d="M126,49.75a5.27,5.27,0,0,1-1.37-3.89V5.54a5.44,5.44,0,0,1,1.51-4,6.33,6.33,0,0,1,8.21,0,5.44,5.44,0,0,1,1.51,4V42h18.43q5.27,0,5.26,4.6t-5.26,4.54h-24.4A5.27,5.27,0,0,1,126,49.75Z"/><path class="cls-5" d="M168.84,50a5.54,5.54,0,0,1-1.51-4.1V5.54a5.44,5.44,0,0,1,1.51-4,6.32,6.32,0,0,1,8.2,0,5.44,5.44,0,0,1,1.52,4v40.4a5.81,5.81,0,0,1-9.72,4.1Z"/><path class="cls-6" d="M204.08,50a5.39,5.39,0,0,1-1.55-4V9.5H190.87q-5.33,0-5.33-4.6T190.87.36h34.56q5.32,0,5.33,4.54t-5.33,4.6H213.76V45.94a5.44,5.44,0,0,1-1.51,4,6.28,6.28,0,0,1-8.17,0Z"/></svg>