<?xml version="1.0" encoding="utf-8"?>
<!-- Generator: Adobe Illustrator 24.1.0, SVG Export Plug-In . SVG Version: 6.00 Build 0)  -->
<svg version="1.1" id="Capa_1" xmlns="http://www.w3.org/2000/svg" xmlns:xlink="http://www.w3.org/1999/xlink" x="0px" y="0px"
	 viewBox="0 0 24 24" style="enable-background:new 0 0 24 24;" xml:space="preserve">
<style type="text/css">
	.st0{fill:none;}
	.st1{fill:#FF8818;}
</style>
<path class="st0" d="M0,0h24v24H0V0z"/>
<path class="st1" d="M19,3h-1V2c0-0.5-0.5-1-1-1s-1,0.5-1,1v1H8V2c0-0.5-0.4-1-1-1S6,1.5,6,2v1H5C3.9,3,3,3.9,3,5l0,14
	c0,1.1,0.9,2,2,2h14c1.1,0,2-0.9,2-2V5C21,3.9,20.1,3,19,3z M18,19H6c-0.6,0-1-0.5-1-1V8h14v10C19,18.5,18.5,19,18,19z M8,10h3
	c0.6,0,1,0.4,1,1v3c0,0.6-0.4,1-1,1H8c-0.6,0-1-0.4-1-1v-3C7,10.4,7.4,10,8,10z"/>
</svg>
