<?xml version="1.0" encoding="utf-8"?>
<!-- Generator: Adobe Illustrator 24.1.0, SVG Export Plug-In . SVG Version: 6.00 Build 0)  -->
<svg version="1.1" id="Capa_1" xmlns="http://www.w3.org/2000/svg" xmlns:xlink="http://www.w3.org/1999/xlink" x="0px" y="0px"
	 viewBox="0 0 24 24" style="enable-background:new 0 0 24 24;" xml:space="preserve">
<style type="text/css">
	.st0{fill:none;}
	.st1{fill:#FF8818;}
</style>
<path class="st0" d="M0,0h24v24H0V0z"/>
<path class="st1" d="M6,2C4.9,2,4,2.9,4,4l0,16c0,1.1,0.9,2,2,2h12c1.1,0,2-0.9,2-2V8.8c0-0.5-0.2-1-0.6-1.4l-4.8-4.8
	C14.2,2.2,13.7,2,13.2,2C13.2,2,6,2,6,2z M13,8V3.5L18.5,9H14C13.4,9,13,8.6,13,8z"/>
</svg>
