<?xml version="1.0" encoding="utf-8"?>
<!-- Generator: Adobe Illustrator 24.1.0, SVG Export Plug-In . SVG Version: 6.00 Build 0)  -->
<svg version="1.1" id="Capa_1" xmlns="http://www.w3.org/2000/svg" xmlns:xlink="http://www.w3.org/1999/xlink" x="0px" y="0px"
	 viewBox="0 0 24 24" style="enable-background:new 0 0 24 24;" xml:space="preserve">
<style type="text/css">
	.st0{fill:none;}
	.st1{fill:#FF8818;}
</style>
<path class="st0" d="M0,0h24v24H0V0z"/>
<path class="st1" d="M16,17v-6c0-0.6-0.4-1-1-1s-1,0.4-1,1v6h-1.8c-0.4,0-0.7,0.5-0.4,0.9l2.8,2.8c0.2,0.2,0.5,0.2,0.7,0l2.8-2.8
	c0.3-0.3,0.1-0.9-0.4-0.9H16z M8.6,3.3L5.9,6.1C5.5,6.4,5.8,7,6.2,7H8v6c0,0.6,0.4,1,1,1s1-0.4,1-1V7h1.8c0.4,0,0.7-0.5,0.4-0.8
	L9.4,3.3C9.2,3.2,8.8,3.2,8.6,3.3z"/>
</svg>
