<?xml version="1.0" encoding="utf-8"?>
<!-- Generator: Adobe Illustrator 24.2.3, SVG Export Plug-In . SVG Version: 6.00 Build 0)  -->
<svg version="1.1" id="Capa_1" xmlns="http://www.w3.org/2000/svg" xmlns:xlink="http://www.w3.org/1999/xlink" x="0px" y="0px"
	 viewBox="0 0 24 24" style="enable-background:new 0 0 24 24;" xml:space="preserve">
<style type="text/css">
	.st0{fill:none;}
	.st1{fill:#EE0000;}
</style>
<path class="st0" d="M0,0h24v24H0V0z"/>
<path class="st1" d="M16.9,17.1l1.4-1.4l-4.9-4.9l-3.3,3.3c-0.4,0.4-1,0.4-1.4,0l-6-6c-0.4-0.4-0.4-1,0-1.4s1-0.4,1.4,0L9.4,12
	l3.3-3.3c0.4-0.4,1-0.4,1.4,0l5.6,5.6l1.4-1.4c0.3-0.3,0.9-0.1,0.9,0.4v4.3c0,0.3-0.2,0.5-0.5,0.5h-4.3C16.8,18,16.5,17.5,16.9,17.1
	z"/>
</svg>
