<?xml version="1.0" encoding="utf-8"?>
<!-- Generator: Adobe Illustrator 24.1.0, SVG Export Plug-In . SVG Version: 6.00 Build 0)  -->
<svg version="1.1" id="Capa_1" xmlns="http://www.w3.org/2000/svg" xmlns:xlink="http://www.w3.org/1999/xlink" x="0px" y="0px"
	 viewBox="0 0 24 24" style="enable-background:new 0 0 24 24;" xml:space="preserve">
<style type="text/css">
	.st0{fill:none;}
	.st1{fill:#FF8818;}
</style>
<path class="st0" d="M0,0h24v24H0V0z"/>
<path class="st1" d="M10,16V8c0-1.1,0.9-2,2-2h9V5c0-1.1-0.9-2-2-2H5C3.9,3,3,3.9,3,5v14c0,1.1,0.9,2,2,2h14c1.1,0,2-0.9,2-2v-1h-9
	C10.9,18,10,17.1,10,16z M13,8c-0.6,0-1,0.4-1,1v6c0,0.6,0.4,1,1,1h9V8H13z M16,13.5c-0.8,0-1.5-0.7-1.5-1.5s0.7-1.5,1.5-1.5
	s1.5,0.7,1.5,1.5S16.8,13.5,16,13.5z"/>
</svg>
