<?xml version="1.0" encoding="utf-8"?>
<!-- Generator: Adobe Illustrator 24.1.0, SVG Export Plug-In . SVG Version: 6.00 Build 0)  -->
<svg version="1.1" id="Capa_1" xmlns="http://www.w3.org/2000/svg" xmlns:xlink="http://www.w3.org/1999/xlink" x="0px" y="0px"
	 viewBox="0 0 24 24" style="enable-background:new 0 0 24 24;" xml:space="preserve">
<style type="text/css">
	.st0{fill:none;}
	.st1{fill:#FF8818;}
</style>
<path class="st0" d="M0,0h24v24H0V0z"/>
<path class="st1" d="M17.1,4.6c-0.7-1-1.5-2-2.4-2.8c-0.4-0.3-0.9,0-0.8,0.5c0.2,0.9,0.4,2.2,0.4,3.3c0,2.1-1.4,3.7-3.4,3.7
	C9.3,9.2,8,8.3,7.5,6.9C7.4,6.7,7.3,6.6,7.3,6.4C7.2,6,6.6,5.8,6.4,6.2C6.2,6.5,6,6.8,5.9,7C4.7,9.1,4,11.5,4,14c0,4.4,3.6,8,8,8
	s8-3.6,8-8C20,10.5,18.9,7.3,17.1,4.6z M11.7,19c-1.8,0-3.2-1.4-3.2-3.1c0-1.6,1.1-2.8,2.8-3.1c1.5-0.3,3-0.9,4-1.9
	c0.3-0.3,0.7-0.1,0.8,0.2c0.2,1,0.4,2.1,0.4,3.1C16.5,16.8,14.4,19,11.7,19z"/>
</svg>
