<?xml version="1.0" encoding="utf-8"?>
<!-- Generator: Adobe Illustrator 24.1.0, SVG Export Plug-In . SVG Version: 6.00 Build 0)  -->
<svg version="1.1" id="Capa_1" xmlns="http://www.w3.org/2000/svg" xmlns:xlink="http://www.w3.org/1999/xlink" x="0px" y="0px"
	 viewBox="0 0 24 24" style="enable-background:new 0 0 24 24;" xml:space="preserve">
<style type="text/css">
	.st0{fill:none;}
	.st1{fill:#FF8818;}
</style>
<path class="st0" d="M0,0h24v24H0V0z"/>
<path class="st1" d="M13,14v6c0,0.5,0.4,1,1,1h6c0.5,0,1-0.5,1-1v-6c0-0.6-0.5-1-1-1h-6C13.4,13,13,13.4,13,14z M4,21h6
	c0.6,0,1-0.5,1-1v-6c0-0.6-0.4-1-1-1H4c-0.5,0-1,0.4-1,1v6C3,20.5,3.5,21,4,21z M3,4v6c0,0.6,0.5,1,1,1h6c0.6,0,1-0.4,1-1V4
	c0-0.5-0.4-1-1-1H4C3.5,3,3,3.5,3,4z M15.9,2.4l-4.2,4.2c-0.4,0.4-0.4,1,0,1.4l4.2,4.2c0.4,0.4,1,0.4,1.4,0l4.2-4.2
	c0.4-0.4,0.4-1,0-1.4l-4.2-4.2C17,2,16.3,2,15.9,2.4z"/>
</svg>
